<?xml version="1.0" encoding="utf-8"?>
<!-- Generator: Adobe Illustrator 16.0.0, SVG Export Plug-In . SVG Version: 6.00 Build 0)  -->
<!DOCTYPE svg PUBLIC "-//W3C//DTD SVG 1.1//EN" "http://www.w3.org/Graphics/SVG/1.1/DTD/svg11.dtd">
<svg version="1.1" id="ansi_x5F_logo" xmlns="http://www.w3.org/2000/svg" xmlns:xlink="http://www.w3.org/1999/xlink" x="0px"
	 y="0px" width="477.368px" height="138.705px" viewBox="0 0 477.368 138.705" enable-background="new 0 0 477.368 138.705"
	 xml:space="preserve">
<g>
	<path fill="#F6F1F1" d="M112.683,138.705c-10.342,0-18.726-8.384-18.726-18.727V65.942l-61.595,65.432
		c-7.089,7.53-18.94,7.89-26.471,0.8c-7.53-7.09-7.889-18.941-0.8-26.471L99.047,5.892c5.262-5.59,13.401-7.404,20.539-4.571
		c7.136,2.83,11.822,9.729,11.822,17.407v101.25C131.409,130.321,123.024,138.705,112.683,138.705"/>
	<path fill="#F6F1F1" d="M263.53,137.729c-5.123,0-10.14-2.104-13.756-6.016l-61.11-65.137v53.402
		c0,10.343-8.384,18.727-18.726,18.727c-10.342,0-18.726-8.384-18.726-18.727V18.728c0-7.709,4.723-14.63,11.901-17.439
		c7.178-2.809,15.345-0.933,20.577,4.727l61.11,66.115V18.728c0-10.343,8.385-18.727,18.727-18.727s18.727,8.384,18.727,18.727
		v100.274c0,7.708-4.723,14.629-11.902,17.438C268.133,137.309,265.821,137.729,263.53,137.729"/>
	<path fill="#F6F1F1" d="M405.145,137.265h-87.139c-10.344,0-18.728-8.384-18.728-18.726c0-10.344,8.384-18.728,18.728-18.728
		h45.931l-60.038-68.768c-4.83-5.533-5.98-13.377-2.941-20.063c3.037-6.687,9.705-10.979,17.049-10.979h87.139
		c10.342,0,18.726,8.384,18.726,18.726c0,10.342-8.384,18.726-18.726,18.726h-45.932l60.039,68.769
		c4.83,5.532,5.979,13.377,2.941,20.063C419.155,132.972,412.489,137.265,405.145,137.265"/>
	<path fill="#F6F1F1" d="M458.637,137.727c-10.342,0-18.726-8.385-18.726-18.727V62.675c0-10.343,8.384-18.727,18.726-18.727
		c10.343,0,18.727,8.384,18.727,18.727V119C477.364,129.342,468.98,137.727,458.637,137.727"/>
	<path fill="#F6F1F1" d="M458.642,37.454c-4.926,0-9.753-2.002-13.239-5.488c-3.486-3.485-5.486-8.312-5.486-13.238
		c0-4.927,2-9.752,5.486-13.238c3.473-3.485,8.299-5.489,13.239-5.489c4.926,0,9.751,2.004,13.237,5.489
		c3.488,3.486,5.488,8.311,5.488,13.238c0,4.926-2,9.753-5.488,13.238C468.393,35.452,463.568,37.454,458.642,37.454"/>
</g>
</svg>
