<?xml version="1.0" encoding="utf-8"?>
<!-- Generator: Adobe Illustrator 12.0.0, SVG Export Plug-In . SVG Version: 6.00 Build 51448)  -->
<!DOCTYPE svg PUBLIC "-//W3C//DTD SVG 1.1//EN" "http://www.w3.org/Graphics/SVG/1.1/DTD/svg11.dtd" [
	<!ENTITY ns_svg "http://www.w3.org/2000/svg">
	<!ENTITY ns_xlink "http://www.w3.org/1999/xlink">
]>
<svg  version="1.1" id="Layer_1" xmlns="&ns_svg;" xmlns:xlink="&ns_xlink;" width="1336.054" height="403.041"
	 viewBox="0 0 1336.054 403.041" overflow="visible" enable-background="new 0 0 1336.054 403.041" xml:space="preserve">
<g>
	<g id="XMLID_1_">
		<g>
			<path fill="#FFFFFF" d="M1303.967,167.761c3.8,11.13,2.56,29.38,2.56,46.649c0,16.431,0,34.21,0,48.57
				c0,28.71,4.38,73.67-4.47,93.3c-18.771,41.601-78.61,34.53-92.67-3.2c-3.92-10.529-3.19-27.819-3.19-44.729
				c0-31.271,0-64.76,0-95.86c0-15.92-1.57-32.56,2.561-44.729c5.56-16.43,21.699-30.24,40.25-32.59
				C1272.997,132.121,1296.217,145.041,1303.967,167.761z"/>
			<path fill="#FFFFFF" d="M1291.827,31.641c6.2,6.29,14.7,19,14.7,35.15c0,65.28-99,64.88-100.33,0.64
				c-0.36-17.31,8.38-30.61,15.98-37.7c7.18-6.71,17.71-12.51,33.869-12.78C1271.177,16.69,1283.477,23.17,1291.827,31.641z"/>
			<path fill="#FFFFFF" d="M1158.907,312.82c15.39,33.96-9.04,66.3-38.979,70.3c-18.33,2.45-39.811,0.641-61.351,0.641
				c-39.819,0-83.569,0-123.33,0c-20.729,0-41.439,2.13-61.35,0c-24.74-2.65-42.97-22.641-44.101-47.29
				c-1.18-25.95,14.771-46.98,39.62-51.76c19.851-3.82,43.341-0.641,65.82-0.641c22.16,0,43.71,0,66.47,0
				c-4.66-9.06-12.72-16.1-19.81-24.28c-41.71-48.14-84.14-97.37-126.53-145.709c-11.979-13.66-25.78-23.64-25.57-47.93
				c0.261-29.95,23.421-48.15,49.851-49.84c38.16-2.45,79.5,0,123.33,0c20.55,0,41.67,0,61.35,0c20.47,0,42.641-2.34,60.07,1.27
				c30.58,6.35,50.61,44.39,31.32,76.05c-6.75,11.06-21.021,21.37-37.71,23.01c-36.04,3.53-86.971-2.66-126.53,0
				c-0.431,2.28,1.96,4.31,3.2,5.75c47.42,55.31,95.97,108.59,144.42,164.87C1146.347,295.681,1154.907,304.001,1158.907,312.82z"/>
			<path fill="#FFFFFF" d="M783.147,59.121c3.02,21.52,0.64,45.98,0.64,70.3c0,44.66,0,95.98,0,141.87
				c0,30.101,4.931,70.221-6.39,89.461c-12.8,21.77-45.51,31.76-69.65,17.26c-8.149-4.9-16.09-14.13-23.01-21.73
				c-49.66-54.54-100.18-107.67-151.45-161.04c0,26.69,0,50.18,0,74.77c0,24.95,2.69,50.189,0,74.13
				c-2.59,23.1-22.25,41.36-44.73,43.45c-27.4,2.55-51.82-16.69-54.96-42.811c-2.69-22.42,0-47.8,0-71.58c0-46.04,0-95.27,0-142.51
				c0-30.7-4.6-71.65,7.03-90.74c11-18.05,40.19-30.82,65.18-18.53c8.67,4.26,16.59,13.44,24.28,21.73
				c51.62,55.55,102.55,112.26,154.01,166.15c0-23.18,0-49.32,0-74.771c0-35.67-5.41-76.38,8.31-96.5
				c3.37-4.94,9.101-10.28,14.061-13.42C739.086,3.96,778.397,25.21,783.147,59.121z"/>
			<path fill="#FFFFFF" d="M379.917,273.841c0,23.6,2.57,48.06,0,70.939c-2.51,22.34-20.19,38.83-41.54,42.17
				c-24.97,3.91-45.3-9.25-53.68-28.75c-8.69-20.25-4.47-53.87-4.47-79.239c0-27.75,0-51.851,0-84.36c-2.21-0.69-3.97,2.06-5.11,3.2
				c-1.99,1.98-4.03,3.85-5.76,5.75c-40.34,44.3-81.37,85.649-122.05,129.729c-13.05,14.13-29.37,36.971-46.65,45.37
				c-32.71,15.91-69.99-6.75-72.21-40.899c0-2.561,0-5.12,0-7.671c1.51-8.359,3.41-16.35,7.03-22.369
				c7.37-12.271,22.24-23.79,33.23-35.78c34.4-37.59,66.86-71.64,100.97-108c33.83-36.08,66.14-71.83,100.96-107.36
				c11.12-11.34,23.9-27.63,35.79-33.87c33.77-17.73,70.56,6.44,73.49,38.34c2.11,22.92,0,47.5,0,70.93
				C379.917,180.13,379.917,226.33,379.917,273.841z"/>
		</g>
		<g>
		</g>
	</g>
</g>
</svg>
