<?xml version="1.0" encoding="utf-8"?>
<!-- Generator: Adobe Illustrator 16.0.0, SVG Export Plug-In . SVG Version: 6.00 Build 0)  -->
<!DOCTYPE svg PUBLIC "-//W3C//DTD SVG 1.1//EN" "http://www.w3.org/Graphics/SVG/1.1/DTD/svg11.dtd">
<svg version="1.1" id="Capa_1" xmlns="http://www.w3.org/2000/svg" xmlns:xlink="http://www.w3.org/1999/xlink" x="0px" y="0px"
	 width="45px" height="45px" viewBox="0 0 45 45" enable-background="new 0 0 45 45" xml:space="preserve">
<g>
	<g>
		<path fill="#FFFFFF" d="M22.5,0C10.094,0,0,10.094,0,22.5S10.094,45,22.5,45S45,34.906,45,22.5S34.906,0,22.5,0z M28.096,23.291
			h-3.66c0,5.85,0,13.049,0,13.049H19.01c0,0,0-7.131,0-13.049h-2.58V18.68h2.58v-2.981c0-2.138,1.016-5.476,5.475-5.476l4.02,0.014
			v4.479c0,0-2.443,0-2.918,0c-0.477,0-1.15,0.236-1.15,1.256v2.709h4.133L28.096,23.291z"/>
	</g>
</g>
</svg>
