<?xml version="1.0" encoding="utf-8"?>
<!-- Generator: Adobe Illustrator 16.0.0, SVG Export Plug-In . SVG Version: 6.00 Build 0)  -->
<!DOCTYPE svg PUBLIC "-//W3C//DTD SVG 1.1//EN" "http://www.w3.org/Graphics/SVG/1.1/DTD/svg11.dtd">
<svg version="1.1" id="레이어_1" xmlns="http://www.w3.org/2000/svg" xmlns:xlink="http://www.w3.org/1999/xlink" x="0px"
	 y="0px" width="46.133px" height="45px" viewBox="0 0 46.133 45" enable-background="new 0 0 46.133 45" xml:space="preserve">
<path fill="#FFFFFF" d="M23.068,0C10.33,0,0,10.331,0,23.072C0,33.261,6.609,41.909,15.777,44.96
	c1.153,0.209,1.575-0.502,1.575-1.111c0-0.549-0.02-2-0.031-3.926c-6.416,1.395-7.77-3.092-7.77-3.092
	c-1.05-2.664-2.562-3.375-2.562-3.375c-2.094-1.43,0.158-1.402,0.158-1.402c2.316,0.164,3.534,2.379,3.534,2.379
	c2.058,3.523,5.4,2.508,6.714,1.918c0.21-1.49,0.806-2.508,1.464-3.084c-5.122-0.584-10.508-2.563-10.508-11.402
	c0-2.518,0.899-4.576,2.375-6.19c-0.238-0.583-1.029-2.929,0.225-6.104c0,0,1.938-0.623,6.343,2.365
	c1.839-0.512,3.813-0.769,5.774-0.777c1.958,0.008,3.933,0.266,5.774,0.777c4.405-2.987,6.337-2.365,6.337-2.365
	c1.26,3.175,0.468,5.521,0.229,6.104c1.479,1.614,2.372,3.672,2.372,6.19c0,8.863-5.396,10.814-10.534,11.383
	c0.83,0.713,1.567,2.121,1.567,4.273c0,3.084-0.029,5.57-0.029,6.328c0,0.617,0.415,1.332,1.588,1.109
	c9.157-3.057,15.76-11.697,15.76-21.887C46.136,10.331,35.808,0,23.068,0z"/>
</svg>
