<?xml version="1.0" encoding="utf-8"?>
<!-- Generator: Adobe Illustrator 16.0.0, SVG Export Plug-In . SVG Version: 6.00 Build 0)  -->
<!DOCTYPE svg PUBLIC "-//W3C//DTD SVG 1.1//EN" "http://www.w3.org/Graphics/SVG/1.1/DTD/svg11.dtd">
<svg version="1.1" id="레이어_1" xmlns="http://www.w3.org/2000/svg" xmlns:xlink="http://www.w3.org/1999/xlink" x="0px"
	 y="0px" width="195.733px" height="90px" viewBox="0 0 195.733 90" enable-background="new 0 0 195.733 90" xml:space="preserve">
<g>
	<path fill="#FAE100" d="M194.733,90H1c-0.553,0-1-0.448-1-1V1c0-0.552,0.447-1,1-1h193.733c0.552,0,1,0.448,1,1v88
		C195.733,89.552,195.285,90,194.733,90"/>
	<path fill="#3C1E1E" d="M44.999,18.77c-16.319,0-29.55,10.453-29.55,23.345c0,8.289,5.471,15.571,13.715,19.712L26.379,72.23
		c-0.104,0.31-0.026,0.645,0.203,0.872c0.165,0.165,0.382,0.248,0.599,0.248c0.185,0,0.37-0.059,0.526-0.182l11.98-8.086
		c1.723,0.246,3.499,0.377,5.312,0.377c16.32,0,29.551-10.451,29.551-23.345C74.55,29.223,61.319,18.77,44.999,18.77"/>
	<path fill="#FAE100" d="M28.669,49.774c-0.871,0-1.413-0.566-1.413-1.479V38.03h-2.973c-0.932,0-1.263-0.692-1.263-1.284
		c0-0.624,0.442-1.288,1.263-1.288h8.771c0.822,0,1.266,0.664,1.266,1.288c0,0.592-0.332,1.284-1.266,1.284h-2.971v10.265
		C30.083,49.208,29.541,49.774,28.669,49.774"/>
	<path fill="#FAE100" d="M48,49.616c-0.926,0-1.479-0.585-1.479-1.564V36.807c0-0.91,0.542-1.476,1.415-1.476
		c0.872,0,1.413,0.566,1.413,1.476v10.237h3.919c0.423,0,0.775,0.135,1.018,0.393c0.233,0.246,0.354,0.592,0.333,0.945
		c-0.017,0.602-0.497,1.234-1.351,1.234H48z"/>
	<path fill="#FAE100" d="M57.254,49.774c-0.847,0-1.415-0.542-1.415-1.352V36.724c0-0.807,0.595-1.393,1.415-1.393
		c0.845,0,1.413,0.56,1.413,1.393v4.529l4.979-5.189c0.221-0.22,0.584-0.517,1.124-0.517c0.682,0.019,1.37,0.472,1.351,1.303
		c0,0.389-0.232,0.646-0.695,1.156c-0.105,0.116-0.221,0.244-0.346,0.387l-3.402,3.433l4.025,5.271
		c0.415,0.543,0.76,0.991,0.685,1.568c-0.111,1.029-1.108,1.109-1.41,1.109c-0.074,0-0.148-0.004-0.221-0.012
		c-0.523-0.053-0.816-0.382-1.361-1.117l-3.713-5.063l-1.016,1.035v3.805C58.667,49.194,58.059,49.774,57.254,49.774"/>
	<path fill="#FAE100" d="M43.758,49.775c-0.709,0-1.16-0.32-1.379-0.982l-0.618-1.933h-5.906l-0.633,1.911
		c-0.221,0.686-0.653,1.004-1.359,1.004c-0.78,0-1.392-0.573-1.392-1.308c0-0.289,0.088-0.513,0.13-0.619l4.103-10.868
		c0.294-0.797,1-1.648,2.102-1.648c0.969,0,1.737,0.599,2.106,1.644l3.976,10.852c0.126,0.34,0.16,0.616,0.16,0.726
		C45.048,49.239,44.482,49.775,43.758,49.775 M36.649,44.356h4.317l-2.132-6.433c-0.009-0.027-0.046-0.027-0.055,0L36.649,44.356z"
		/>
	<text transform="matrix(1 0 0 1 116.3999 52.3467)" font-family="'KakaoBold'" font-size="28.0702">ansi</text>
</g>
</svg>
