<?xml version="1.0" encoding="utf-8"?>
<!-- Generator: Adobe Illustrator 16.0.0, SVG Export Plug-In . SVG Version: 6.00 Build 0)  -->
<!DOCTYPE svg PUBLIC "-//W3C//DTD SVG 1.1//EN" "http://www.w3.org/Graphics/SVG/1.1/DTD/svg11.dtd">
<svg version="1.1" id="레이어_1" xmlns="http://www.w3.org/2000/svg" xmlns:xlink="http://www.w3.org/1999/xlink" x="0px"
	 y="0px" width="97.867px" height="45px" viewBox="0 0 97.867 45" enable-background="new 0 0 97.867 45" xml:space="preserve">
<g>
	<path fill="#FAE100" d="M97.367,45H0.5C0.224,45,0,44.776,0,44.5v-44C0,0.224,0.224,0,0.5,0h96.867c0.276,0,0.5,0.224,0.5,0.5v44
		C97.867,44.776,97.643,45,97.367,45"/>
	<path fill="#3C1E1E" d="M22.5,9.385c-8.16,0-14.775,5.226-14.775,11.672c0,4.145,2.735,7.786,6.857,9.856l-1.393,5.202
		c-0.052,0.155-0.013,0.322,0.102,0.436c0.083,0.083,0.191,0.124,0.299,0.124c0.093,0,0.185-0.029,0.263-0.091l5.99-4.043
		c0.861,0.123,1.75,0.188,2.656,0.188c8.16,0,14.775-5.226,14.775-11.673C37.275,14.611,30.66,9.385,22.5,9.385"/>
	<path fill="#FAE100" d="M14.334,24.887c-0.436,0-0.707-0.283-0.707-0.74v-5.132h-1.486c-0.466,0-0.631-0.346-0.631-0.642
		c0-0.312,0.221-0.644,0.631-0.644h4.385c0.411,0,0.633,0.332,0.633,0.644c0,0.296-0.166,0.642-0.633,0.642h-1.485v5.132
		C15.042,24.604,14.771,24.887,14.334,24.887"/>
	<path fill="#FAE100" d="M24,24.808c-0.463,0-0.739-0.292-0.739-0.782v-5.622c0-0.455,0.271-0.738,0.708-0.738
		c0.436,0,0.707,0.283,0.707,0.738v5.118h1.959c0.211,0,0.387,0.067,0.509,0.196c0.117,0.123,0.177,0.296,0.167,0.473
		c-0.008,0.301-0.249,0.617-0.675,0.617H24z"/>
	<path fill="#FAE100" d="M28.627,24.887c-0.423,0-0.708-0.271-0.708-0.676v-5.85c0-0.403,0.297-0.696,0.708-0.696
		c0.422,0,0.707,0.28,0.707,0.696v2.265l2.49-2.594c0.11-0.11,0.292-0.258,0.562-0.258c0.341,0.009,0.685,0.235,0.675,0.651
		c0,0.194-0.116,0.323-0.348,0.578c-0.052,0.058-0.11,0.122-0.173,0.193l-1.701,1.716l2.013,2.635
		c0.208,0.271,0.38,0.496,0.342,0.784c-0.055,0.515-0.554,0.555-0.705,0.555c-0.037,0-0.074-0.002-0.111-0.006
		c-0.261-0.026-0.408-0.191-0.68-0.559l-1.857-2.531l-0.508,0.518v1.902C29.333,24.597,29.029,24.887,28.627,24.887"/>
	<path fill="#FAE100" d="M21.879,24.888c-0.354,0-0.58-0.16-0.689-0.491l-0.309-0.966h-2.953l-0.316,0.956
		c-0.11,0.343-0.327,0.502-0.68,0.502c-0.39,0-0.696-0.287-0.696-0.654c0-0.145,0.044-0.256,0.065-0.31l2.051-5.434
		c0.147-0.399,0.5-0.824,1.051-0.824c0.484,0,0.869,0.299,1.053,0.822l1.988,5.426c0.063,0.17,0.08,0.308,0.08,0.363
		C22.524,24.62,22.241,24.888,21.879,24.888 M18.325,22.178h2.159l-1.066-3.217c-0.005-0.014-0.023-0.014-0.028,0L18.325,22.178z"/>
	<g>
		<path d="M58.79,24.812c0-0.786,0.26-1.378,0.779-1.775c0.519-0.397,1.284-0.597,2.294-0.597h1.179v-0.253
			c0-0.205-0.019-0.388-0.056-0.547c-0.038-0.159-0.108-0.292-0.21-0.4c-0.104-0.107-0.241-0.189-0.414-0.245
			c-0.173-0.057-0.4-0.084-0.681-0.084c-0.346,0-0.681,0.038-1.003,0.112s-0.652,0.202-0.989,0.379l-0.52-1.292
			c0.355-0.243,0.779-0.435,1.271-0.575s0.98-0.21,1.466-0.21c0.955,0,1.675,0.234,2.162,0.702c0.486,0.468,0.73,1.184,0.73,2.147
			v4.772h-1.319l-0.21-0.632c-0.384,0.299-0.77,0.513-1.158,0.639c-0.388,0.126-0.746,0.189-1.074,0.189
			c-0.729,0-1.287-0.203-1.67-0.61C58.981,26.124,58.79,25.551,58.79,24.812z M61.414,25.682c0.328,0,0.639-0.061,0.934-0.183
			c0.294-0.122,0.526-0.257,0.695-0.407v-1.446h-1.011c-1.029,0-1.544,0.384-1.544,1.151c0,0.271,0.077,0.487,0.232,0.646
			C60.874,25.603,61.105,25.682,61.414,25.682z"/>
		<path d="M66.635,19.549h1.333l0.281,0.744c0.328-0.299,0.704-0.535,1.13-0.709c0.426-0.173,0.835-0.259,1.228-0.259
			c0.833,0,1.455,0.246,1.867,0.737s0.618,1.205,0.618,2.141v4.744H71.21v-4.8c0-0.421-0.091-0.723-0.273-0.905
			c-0.183-0.182-0.526-0.273-1.032-0.273c-0.197,0-0.423,0.026-0.681,0.077c-0.257,0.052-0.494,0.119-0.709,0.204v5.698h-1.88
			V19.549z"/>
		<path d="M76.586,21.57c0,0.206,0.112,0.381,0.337,0.526s0.604,0.311,1.137,0.498c0.384,0.131,0.707,0.271,0.969,0.421
			c0.262,0.15,0.475,0.312,0.639,0.484c0.164,0.173,0.28,0.368,0.351,0.583c0.07,0.215,0.105,0.458,0.105,0.73
			c0,0.758-0.239,1.338-0.716,1.74s-1.193,0.604-2.147,0.604c-0.431,0-0.887-0.047-1.368-0.14c-0.482-0.094-0.934-0.225-1.354-0.393
			l0.379-1.46c0.374,0.141,0.758,0.258,1.151,0.351c0.393,0.094,0.786,0.14,1.179,0.14s0.669-0.063,0.828-0.189
			c0.159-0.126,0.239-0.297,0.239-0.512c0-0.112-0.017-0.21-0.049-0.294c-0.033-0.084-0.101-0.166-0.204-0.246
			s-0.25-0.162-0.442-0.246c-0.192-0.084-0.447-0.183-0.765-0.295c-0.383-0.131-0.707-0.267-0.968-0.407
			c-0.262-0.14-0.473-0.297-0.631-0.47c-0.159-0.173-0.276-0.374-0.351-0.604c-0.075-0.229-0.112-0.499-0.112-0.807
			c0-0.337,0.065-0.643,0.197-0.919c0.131-0.276,0.315-0.512,0.554-0.709c0.239-0.196,0.524-0.351,0.856-0.463
			s0.704-0.168,1.116-0.168c0.458,0,0.892,0.047,1.298,0.14c0.407,0.094,0.816,0.234,1.228,0.421l-0.519,1.362
			c-0.244-0.131-0.536-0.239-0.877-0.323c-0.341-0.084-0.662-0.126-0.961-0.126c-0.355,0-0.627,0.07-0.814,0.21
			C76.68,21.149,76.586,21.336,76.586,21.57z"/>
		<path d="M81.175,17.135l1.375-1.389l1.375,1.389l-1.375,1.375L81.175,17.135z M83.491,19.549v7.396h-1.88v-7.396H83.491z"/>
	</g>
</g>
</svg>
